<svg xmlns="http://www.w3.org/2000/svg" viewBox="0 0 427.5 371.81"><defs><style>.cls-1{fill:#0e7abf;}.cls-1,.cls-2,.cls-3,.cls-4,.cls-5,.cls-6{fill-rule:evenodd;}.cls-2{fill:#d3e2ee;}.cls-3{fill:#104c8d;}.cls-4{fill:#0068ab;}.cls-5{fill:#1e3667;}.cls-6{fill:#b1c8d5;}</style></defs><title>bp_logo</title><g id="Layer_2" data-name="Layer 2"><g id="Layer_1-2" data-name="Layer 1"><g id="Artwork_10" data-name="Artwork 10"><polygon class="cls-1" points="355.25 164.34 283.75 205.59 283.88 205.84 356.13 288.83 356.13 288.83 427.5 247.33 355.38 164.34 355.25 164.34"/><polygon class="cls-2" points="356.13 288.83 356.13 288.83 285 330.19 285 330.19 213.13 246.33 213.13 246.33 283.75 205.59 283.88 205.84 356.13 288.83"/><polygon class="cls-2" points="355.38 164.34 355.25 164.34 283.75 205.59 212.88 123.35 283.25 81.48 283.38 81.48 355.38 164.34"/><polygon class="cls-1" points="213.38 371.81 285 330.19 285 330.19 213.13 246.33 213.38 371.81"/><polygon class="cls-3" points="212.88 123.35 283.75 205.59 213.13 246.33 212.75 123.35 212.88 123.35"/><polygon class="cls-1" points="212.75 123.35 212.88 123.35 283.25 81.48 283.38 81.48 212.5 0 212.75 123.35"/><polygon class="cls-4" points="69.75 287.95 69.75 287.95 213.38 371.81 213.13 246.33 213.13 246.33 141.38 205.46 70.63 165.22 69.75 287.95"/><polygon class="cls-5" points="212.75 123.35 213.13 246.33 213.13 246.33 141.38 205.46 141.38 205.46 141.13 83.24 212.75 123.35"/><polygon class="cls-4" points="212.5 0 141.13 83.11 141.13 83.24 212.75 123.35 212.75 123.35 212.5 0"/><polygon class="cls-6" points="141.38 205.46 141.38 205.46 70.63 165.22 70.63 165.22 141.13 83.11 141.13 83.24 141.38 205.46"/><polygon class="cls-5" points="0 247.33 69.75 287.95 69.75 287.95 70.63 165.22 70.63 165.22 0 247.33"/></g></g></g></svg>